<svg width="121" height="40" viewBox="0 0 121 40" fill="none" xmlns="http://www.w3.org/2000/svg">
<g clip-path="url(#clip0_9_164)">
<path d="M113.333 0.5H7.33334C3.74349 0.5 0.833344 3.41015 0.833344 7V33C0.833344 36.5899 3.74349 39.5 7.33334 39.5H113.333C116.923 39.5 119.833 36.5899 119.833 33V7C119.833 3.41015 116.923 0.5 113.333 0.5Z" fill="#0C0D10"/>
<path d="M113.333 0.5H7.33334C3.74349 0.5 0.833344 3.41015 0.833344 7V33C0.833344 36.5899 3.74349 39.5 7.33334 39.5H113.333C116.923 39.5 119.833 36.5899 119.833 33V7C119.833 3.41015 116.923 0.5 113.333 0.5Z" stroke="#A6A6A6"/>
<path d="M81.8593 19.2009V21.4919H80.4232V22.9944H81.8593V28.0994C81.8593 29.8425 82.6478 30.5398 84.6317 30.5398C84.9804 30.5398 85.3124 30.4983 85.6029 30.4485V28.9626C85.3539 28.9875 85.1962 29.0042 84.9223 29.0042C84.0341 29.0042 83.6439 28.5891 83.6439 27.6428V22.9944H85.6029V21.4919H83.6439V19.2009H81.8593Z" fill="white"/>
<path d="M90.6567 30.6643C93.2963 30.6643 94.915 28.8962 94.915 25.9661C94.915 23.0525 93.288 21.2761 90.6567 21.2761C88.017 21.2761 86.3901 23.0525 86.3901 25.9661C86.3901 28.8962 88.0087 30.6643 90.6567 30.6643ZM90.6567 29.0789C89.1044 29.0789 88.2328 27.9417 88.2328 25.9661C88.2328 24.0071 89.1044 22.8616 90.6567 22.8616C92.2006 22.8616 93.0805 24.0071 93.0805 25.9661C93.0805 27.9334 92.2006 29.0789 90.6567 29.0789Z" fill="white"/>
<path d="M96.2999 30.49H98.0845V25.1526C98.0845 23.8826 99.0391 23.0276 100.392 23.0276C100.707 23.0276 101.239 23.0857 101.388 23.1355V21.3757C101.197 21.3259 100.857 21.301 100.591 21.301C99.4127 21.301 98.4083 21.9485 98.1509 22.8367H98.0181V21.4504H96.2999V30.49Z" fill="white"/>
<path d="M105.819 22.7952C107.139 22.7952 108.002 23.7166 108.044 25.136H103.478C103.578 23.7249 104.499 22.7952 105.819 22.7952ZM108.036 28.0496C107.704 28.7551 106.965 29.1453 105.886 29.1453C104.458 29.1453 103.537 28.1409 103.478 26.5554V26.4558H109.862V25.8333C109.862 22.9944 108.343 21.2761 105.828 21.2761C103.279 21.2761 101.661 23.1106 101.661 25.9993C101.661 28.8879 103.246 30.6643 105.836 30.6643C107.903 30.6643 109.347 29.6682 109.754 28.0496H108.036Z" fill="white"/>
<path d="M70.1556 27.1518C70.2932 29.3715 72.143 30.7911 74.8961 30.7911C77.8385 30.7911 79.6797 29.3027 79.6797 26.9281C79.6797 25.0612 78.63 24.0288 76.0834 23.4351L74.7154 23.0996C73.098 22.721 72.4441 22.2134 72.4441 21.3272C72.4441 20.2088 73.4593 19.4775 74.9822 19.4775C76.4275 19.4775 77.4256 20.1916 77.6062 21.3359H79.4818C79.3699 19.2452 77.5288 17.774 75.008 17.774C72.2979 17.774 70.4911 19.2452 70.4911 21.4563C70.4911 23.2802 71.5149 24.3643 73.7605 24.8891L75.3607 25.2763C77.004 25.6634 77.7267 26.2313 77.7267 27.1776C77.7267 28.2789 76.591 29.079 75.0424 29.079C73.3819 29.079 72.229 28.3305 72.0656 27.1518H70.1556Z" fill="white"/>
<path d="M51.6682 21.301C50.4397 21.301 49.3772 21.9153 48.8294 22.9446H48.6966V21.4504H46.9783V33.4949H48.763V29.1204H48.9041C49.3772 30.075 50.3982 30.6394 51.6849 30.6394C53.9676 30.6394 55.4202 28.8381 55.4202 25.9661C55.4202 23.094 53.9676 21.301 51.6682 21.301ZM51.1619 29.0374C49.6678 29.0374 48.7298 27.8586 48.7298 25.9744C48.7298 24.0818 49.6678 22.9031 51.1702 22.9031C52.6809 22.9031 53.5857 24.0569 53.5857 25.9661C53.5857 27.8835 52.6809 29.0374 51.1619 29.0374Z" fill="white"/>
<path d="M61.6651 21.301C60.4366 21.301 59.3741 21.9153 58.8263 22.9446H58.6935V21.4504H56.9752V33.4949H58.7599V29.1204H58.901C59.3741 30.075 60.3951 30.6394 61.6817 30.6394C63.9645 30.6394 65.4171 28.8381 65.4171 25.9661C65.4171 23.094 63.9645 21.301 61.6651 21.301ZM61.1588 29.0374C59.6647 29.0374 58.7267 27.8586 58.7267 25.9744C58.7267 24.0818 59.6647 22.9031 61.1671 22.9031C62.6778 22.9031 63.5826 24.0569 63.5826 25.9661C63.5826 27.8835 62.6778 29.0374 61.1588 29.0374Z" fill="white"/>
<path d="M43.7763 30.49H45.8239L41.3415 18.0751H39.2681L34.7856 30.49H36.7644L37.9087 27.1948H42.6406L43.7763 30.49ZM40.2058 20.3292H40.3521L42.1502 25.5774H38.3991L40.2058 20.3292Z" fill="white"/>
<path d="M35.9844 8.71094V14.7H38.1468C39.9314 14.7 40.9649 13.6001 40.9649 11.6868C40.9649 9.80249 39.9231 8.71094 38.1468 8.71094H35.9844ZM36.9141 9.55762H38.043C39.284 9.55762 40.0186 10.3462 40.0186 11.6992C40.0186 13.073 39.2964 13.8533 38.043 13.8533H36.9141V9.55762Z" fill="white"/>
<path d="M44.13 14.7871C45.4498 14.7871 46.2591 13.9031 46.2591 12.438C46.2591 10.9812 45.4457 10.093 44.13 10.093C42.8102 10.093 41.9967 10.9812 41.9967 12.438C41.9967 13.9031 42.806 14.7871 44.13 14.7871ZM44.13 13.9944C43.3539 13.9944 42.9181 13.4258 42.9181 12.438C42.9181 11.4585 43.3539 10.8857 44.13 10.8857C44.902 10.8857 45.3419 11.4585 45.3419 12.438C45.3419 13.4216 44.902 13.9944 44.13 13.9944Z" fill="white"/>
<path d="M53.1513 10.1802H52.2589L51.4538 13.6292H51.3832L50.4535 10.1802H49.5985L48.6688 13.6292H48.6024L47.7931 10.1802H46.8883L48.1334 14.7H49.0507L49.9804 11.3713H50.0509L50.9848 14.7H51.9103L53.1513 10.1802Z" fill="white"/>
<path d="M54.179 14.7H55.0713V12.0562C55.0713 11.3506 55.4905 10.9106 56.1504 10.9106C56.8104 10.9106 57.1258 11.2717 57.1258 11.998V14.7H58.0181V11.7739C58.0181 10.699 57.462 10.093 56.4534 10.093C55.7728 10.093 55.3245 10.396 55.1045 10.8982H55.0381V10.1802H54.179V14.7Z" fill="white"/>
<path d="M59.4233 14.7H60.3157V8.41626H59.4233V14.7Z" fill="white"/>
<path d="M63.6718 14.7871C64.9916 14.7871 65.8008 13.9031 65.8008 12.438C65.8008 10.9812 64.9875 10.093 63.6718 10.093C62.352 10.093 61.5385 10.9812 61.5385 12.438C61.5385 13.9031 62.3478 14.7871 63.6718 14.7871ZM63.6718 13.9944C62.8957 13.9944 62.4599 13.4258 62.4599 12.438C62.4599 11.4585 62.8957 10.8857 63.6718 10.8857C64.4438 10.8857 64.8837 11.4585 64.8837 12.438C64.8837 13.4216 64.4438 13.9944 63.6718 13.9944Z" fill="white"/>
<path d="M68.4596 14.0234C67.974 14.0234 67.6212 13.7869 67.6212 13.3801C67.6212 12.9817 67.9034 12.77 68.526 12.7285L69.63 12.658V13.0356C69.63 13.5959 69.1319 14.0234 68.4596 14.0234ZM68.2313 14.7747C68.8248 14.7747 69.3187 14.5173 69.5885 14.0649H69.659V14.7H70.5182V11.6121C70.5182 10.6575 69.879 10.093 68.7459 10.093C67.7208 10.093 66.9903 10.5911 66.899 11.3672H67.7623C67.8619 11.0476 68.2064 10.865 68.7044 10.865C69.3145 10.865 69.63 11.1348 69.63 11.6121V12.0022L68.4056 12.0728C67.3307 12.1392 66.7247 12.6082 66.7247 13.4216C66.7247 14.2476 67.3597 14.7747 68.2313 14.7747Z" fill="white"/>
<path d="M73.5463 14.7747C74.1688 14.7747 74.696 14.48 74.9658 13.9861H75.0364V14.7H75.8913V8.41626H74.999V10.8982H74.9325C74.6876 10.4001 74.1647 10.1055 73.5463 10.1055C72.4049 10.1055 71.6703 11.0103 71.6703 12.438C71.6703 13.8699 72.3966 14.7747 73.5463 14.7747ZM73.7996 10.9065C74.5466 10.9065 75.0155 11.5 75.0155 12.4421C75.0155 13.3884 74.5508 13.9736 73.7996 13.9736C73.0442 13.9736 72.5918 13.3967 72.5918 12.438C72.5918 11.4875 73.0483 10.9065 73.7996 10.9065Z" fill="white"/>
<path d="M81.6777 14.7871C82.9976 14.7871 83.8069 13.9031 83.8069 12.438C83.8069 10.9812 82.9934 10.093 81.6777 10.093C80.3579 10.093 79.5444 10.9812 79.5444 12.438C79.5444 13.9031 80.3538 14.7871 81.6777 14.7871ZM81.6777 13.9944C80.9016 13.9944 80.4658 13.4258 80.4658 12.438C80.4658 11.4585 80.9016 10.8857 81.6777 10.8857C82.4497 10.8857 82.8896 11.4585 82.8896 12.438C82.8896 13.4216 82.4497 13.9944 81.6777 13.9944Z" fill="white"/>
<path d="M84.9882 14.7H85.8805V12.0562C85.8805 11.3506 86.2997 10.9106 86.9596 10.9106C87.6195 10.9106 87.935 11.2717 87.935 11.998V14.7H88.8273V11.7739C88.8273 10.699 88.2711 10.093 87.2626 10.093C86.5819 10.093 86.1337 10.396 85.9137 10.8982H85.8473V10.1802H84.9882V14.7Z" fill="white"/>
<path d="M92.9369 9.05542V10.2009H92.2189V10.9521H92.9369V13.5046C92.9369 14.3762 93.3312 14.7249 94.3231 14.7249C94.4975 14.7249 94.6635 14.7041 94.8087 14.6792V13.9363C94.6842 13.9487 94.6054 13.957 94.4684 13.957C94.0243 13.957 93.8292 13.7495 93.8292 13.2764V10.9521H94.8087V10.2009H93.8292V9.05542H92.9369Z" fill="white"/>
<path d="M96.0065 14.7H96.8989V12.0603C96.8989 11.3755 97.3056 10.9148 98.0361 10.9148C98.6669 10.9148 99.0031 11.28 99.0031 12.0022V14.7H99.8955V11.7822C99.8955 10.7073 99.302 10.0972 98.3391 10.0972C97.6584 10.0972 97.1811 10.4001 96.9611 10.9065H96.8906V8.41626H96.0065V14.7Z" fill="white"/>
<path d="M103.114 10.8525C103.774 10.8525 104.206 11.3132 104.227 12.0229H101.944C101.994 11.3174 102.454 10.8525 103.114 10.8525ZM104.222 13.4797C104.056 13.8325 103.687 14.0276 103.147 14.0276C102.434 14.0276 101.973 13.5254 101.944 12.7327V12.6829H105.135V12.3716C105.135 10.9521 104.376 10.093 103.118 10.093C101.844 10.093 101.035 11.0103 101.035 12.4546C101.035 13.8989 101.828 14.7871 103.122 14.7871C104.156 14.7871 104.878 14.2891 105.081 13.4797H104.222Z" fill="white"/>
<path d="M25.1023 20.3008C25.124 18.6198 26.0267 17.0292 27.4589 16.1488C26.5554 14.8584 25.0421 14.0403 23.4677 13.9911C21.7885 13.8148 20.1605 14.9959 19.3048 14.9959C18.4325 14.9959 17.115 14.0086 15.6963 14.0378C13.847 14.0975 12.1231 15.1489 11.2234 16.7656C9.28941 20.1141 10.732 25.0351 12.5846 27.7417C13.5115 29.0671 14.5948 30.5475 16.0122 30.495C17.3993 30.4375 17.9173 29.6105 19.5916 29.6105C21.2504 29.6105 21.7364 30.495 23.1826 30.4616C24.671 30.4375 25.6087 29.1304 26.5031 27.7925C27.1691 26.8481 27.6816 25.8044 28.0215 24.7C26.2724 23.9602 25.1043 22.2 25.1023 20.3008Z" fill="white"/>
<path d="M22.3706 12.2111C23.1822 11.2369 23.582 9.98469 23.4851 8.72046C22.2453 8.85068 21.1001 9.44324 20.2776 10.3801C19.4733 11.2954 19.0547 12.5255 19.1339 13.7415C20.3741 13.7542 21.5934 13.1777 22.3706 12.2111Z" fill="white"/>
</g>
<defs>
<clipPath id="clip0_9_164">
<rect width="120" height="40" fill="white" transform="translate(0.333344)"/>
</clipPath>
</defs>
</svg>
