<svg width="136" height="40" viewBox="0 0 136 40" fill="none" xmlns="http://www.w3.org/2000/svg">
<g clip-path="url(#clip0_9_219)">
<path d="M130.333 0.5H5.33334C2.84806 0.5 0.833344 2.51472 0.833344 5V35C0.833344 37.4853 2.84806 39.5 5.33334 39.5H130.333C132.819 39.5 134.833 37.4853 134.833 35V5C134.833 2.51472 132.819 0.5 130.333 0.5Z" fill="black"/>
<path d="M130.333 0.5H5.33334C2.84806 0.5 0.833344 2.51472 0.833344 5V35C0.833344 37.4853 2.84806 39.5 5.33334 39.5H130.333C132.819 39.5 134.833 37.4853 134.833 35V5C134.833 2.51472 132.819 0.5 130.333 0.5Z" stroke="#A6A6A6"/>
<path d="M107.268 29.9999H109.134V17.4983H107.268V29.9999ZM124.075 22.0019L121.936 27.4218H121.872L119.652 22.0019H117.642L120.972 29.5769L119.073 33.7909H121.019L126.15 22.0019H124.075ZM113.492 28.58C112.882 28.58 112.029 28.2741 112.029 27.5183C112.029 26.5534 113.091 26.1835 114.007 26.1835C114.827 26.1835 115.214 26.3601 115.712 26.6015C115.567 27.7597 114.57 28.58 113.492 28.58ZM113.718 21.7284C112.367 21.7284 110.968 22.3237 110.389 23.6425L112.045 24.3339C112.399 23.6425 113.058 23.4175 113.75 23.4175C114.715 23.4175 115.696 23.996 115.712 25.0257V25.1542C115.374 24.9612 114.65 24.6718 113.766 24.6718C111.98 24.6718 110.163 25.6526 110.163 27.4862C110.163 29.1589 111.627 30.2366 113.267 30.2366C114.521 30.2366 115.214 29.6737 115.647 29.014H115.712V29.9796H117.514V25.1862C117.514 22.9667 115.856 21.7284 113.718 21.7284ZM102.186 23.5237H99.532V19.2386H102.186C103.581 19.2386 104.373 20.3933 104.373 21.3811C104.373 22.3499 103.581 23.5237 102.186 23.5237ZM102.138 17.4983H97.6667V29.9999H99.532V25.2636H102.138C104.206 25.2636 106.239 23.7667 106.239 21.3811C106.239 18.996 104.206 17.4983 102.138 17.4983ZM77.7566 28.5823C76.4675 28.5823 75.3885 27.5026 75.3885 26.021C75.3885 24.5222 76.4675 23.4272 77.7566 23.4272C79.0293 23.4272 80.0281 24.5222 80.0281 26.021C80.0281 27.5026 79.0293 28.5823 77.7566 28.5823ZM79.8992 22.7019H79.8346C79.4159 22.2026 78.6101 21.7515 77.5956 21.7515C75.4687 21.7515 73.5194 23.6206 73.5194 26.021C73.5194 28.405 75.4687 30.2577 77.5956 30.2577C78.6101 30.2577 79.4159 29.8065 79.8346 29.2913H79.8992V29.903C79.8992 31.5308 79.0292 32.4003 77.6276 32.4003C76.4842 32.4003 75.7754 31.5788 75.4851 30.8862L73.8582 31.5628C74.325 32.6901 75.5651 34.0761 77.6276 34.0761C79.819 34.0761 81.6718 32.787 81.6718 29.6452V22.0093H79.8992V22.7019ZM82.9609 29.9999H84.8288V17.4983H82.9609V29.9999ZM87.584 25.8757C87.5359 24.2323 88.8573 23.3948 89.8074 23.3948C90.5488 23.3948 91.1764 23.7655 91.3867 24.2968L87.584 25.8757ZM93.3836 24.4577C93.0293 23.5077 91.95 21.7515 89.7429 21.7515C87.5515 21.7515 85.7311 23.4753 85.7311 26.0046C85.7311 28.389 87.5359 30.2577 89.9519 30.2577C91.9011 30.2577 93.0293 29.0659 93.4967 28.3729L92.0468 27.4061C91.5633 28.1151 90.903 28.5823 89.9519 28.5823C89.0019 28.5823 88.3249 28.1472 87.8905 27.2933L93.5769 24.9413L93.3836 24.4577ZM48.0758 23.0565V24.8608H52.3932C52.2643 25.8757 51.9261 26.6167 51.4104 27.1323C50.7819 27.7604 49.7992 28.4534 48.0758 28.4534C45.4175 28.4534 43.3394 26.3108 43.3394 23.6526C43.3394 20.9944 45.4175 18.8515 48.0758 18.8515C49.5097 18.8515 50.5566 19.4155 51.33 20.1405L52.6031 18.8675C51.5233 17.8366 50.0898 17.0472 48.0758 17.0472C44.4343 17.0472 41.3734 20.0116 41.3734 23.6526C41.3734 27.2933 44.4343 30.2577 48.0758 30.2577C50.041 30.2577 51.5234 29.6132 52.6832 28.405C53.8754 27.2128 54.2461 25.5374 54.2461 24.1839C54.2461 23.7655 54.2136 23.3788 54.1492 23.0565H48.0758ZM59.1547 28.5823C57.8656 28.5823 56.7539 27.519 56.7539 26.0046C56.7539 24.4741 57.8656 23.4272 59.1547 23.4272C60.4433 23.4272 61.555 24.4741 61.555 26.0046C61.555 27.519 60.4433 28.5823 59.1547 28.5823ZM59.1547 21.7515C56.8019 21.7515 54.8851 23.5397 54.8851 26.0046C54.8851 28.4534 56.8019 30.2577 59.1547 30.2577C61.5066 30.2577 63.4238 28.4534 63.4238 26.0046C63.4238 23.5397 61.5066 21.7515 59.1547 21.7515ZM68.4675 28.5823C67.1793 28.5823 66.0672 27.519 66.0672 26.0046C66.0672 24.4741 67.1793 23.4272 68.4675 23.4272C69.7566 23.4272 70.8679 24.4741 70.8679 26.0046C70.8679 27.519 69.7566 28.5823 68.4675 28.5823ZM68.4675 21.7515C66.1156 21.7515 64.1987 23.5397 64.1987 26.0046C64.1987 28.4534 66.1156 30.2577 68.4675 30.2577C70.8203 30.2577 72.7371 28.4534 72.7371 26.0046C72.7371 23.5397 70.8203 21.7515 68.4675 21.7515Z" fill="white"/>
<path d="M44.8105 13.2344C43.914 13.2344 43.1428 12.9189 42.5211 12.2973C41.899 11.6752 41.584 10.8963 41.584 9.9906C41.584 9.08491 41.8992 8.30741 42.5211 7.68396C43.1428 7.06221 43.914 6.74685 44.8105 6.74685C45.2673 6.74685 45.6936 6.82574 46.101 6.99001C46.5085 7.15431 46.8419 7.38237 47.1045 7.68083L47.1664 7.75134L46.467 8.45056L46.3971 8.36462C46.2229 8.15068 46.0015 7.98447 45.7209 7.86365C45.4413 7.74313 45.1351 7.68747 44.8105 7.68747C44.1791 7.68747 43.6551 7.90192 43.2176 8.33786C43.2175 8.33796 43.2177 8.33775 43.2176 8.33786C42.79 8.7826 42.5746 9.32429 42.5746 9.9906C42.5746 10.6575 42.7898 11.199 43.2179 11.6439C43.6555 12.0797 44.1794 12.2953 44.8105 12.2953C45.3886 12.2953 45.8667 12.1339 46.2425 11.8145C46.5924 11.5171 46.8027 11.1153 46.8769 10.6031H44.7105V9.68123H47.8133L47.8265 9.7656C47.852 9.92766 47.8699 10.0841 47.8699 10.2344C47.8699 11.0945 47.6077 11.7967 47.0931 12.3133C46.5123 12.929 45.7485 13.2344 44.8105 13.2344ZM71.7523 13.2344C70.8544 13.2344 70.0923 12.9188 69.4785 12.2973C68.8639 11.6825 68.5586 10.903 68.5586 9.99059C68.5586 9.0782 68.8635 8.29913 69.4781 7.68434C69.478 7.68444 69.4782 7.68427 69.4781 7.68434C70.0919 7.06274 70.8544 6.74683 71.7523 6.74683C72.6485 6.74683 73.4109 7.06242 74.0246 7.69332C74.6394 8.30801 74.9445 9.0856 74.9445 9.99058C74.9445 10.903 74.6396 11.6821 74.025 12.2969C73.4109 12.9188 72.6412 13.2344 71.7523 13.2344ZM48.7578 13.1V6.88122H48.8578H52.4719V7.82185H49.7312V9.52966H52.2031V10.4516H49.7312V12.1609H52.4719V13.1H48.7578ZM54.7449 13.1V7.82185H53.0637V6.88122H57.3996V7.82185H57.2996H55.7183V13.1H54.7449ZM60.1707 13.1V6.88122H61.1441V6.98122V13.1H60.1707ZM63.5945 13.1V7.82185H61.9133V6.88122H66.2492V7.82185H66.1492H64.5679V13.1H63.5945ZM75.8086 13.1V6.88122H76.9062L79.6998 11.3535L79.6758 10.5045V6.88122H80.6492V13.1H79.6859L76.758 8.40173L76.782 9.25017V9.25154V13.1H75.8086ZM71.7523 12.2953C72.3838 12.2953 72.8993 12.0799 73.3195 11.6447L73.3201 11.6439C73.7463 11.2176 73.9555 10.6682 73.9555 9.99057C73.9555 9.31459 73.7468 8.76395 73.3207 8.33783L73.3195 8.33663C72.8994 7.9015 72.384 7.68741 71.7523 7.68741C71.1196 7.68741 70.6042 7.90113 70.1762 8.33624C69.7578 8.7727 69.5492 9.31478 69.5492 9.99055C69.5492 10.668 69.7574 11.2079 70.1758 11.6445C70.6039 12.0797 71.1198 12.2953 71.7523 12.2953Z" fill="white"/>
<path d="M21.0478 19.4232L10.4013 30.7232C10.4017 30.7256 10.4025 30.7275 10.4029 30.7299C10.7294 31.9568 11.8501 32.8603 13.1802 32.8603C13.7119 32.8603 14.2111 32.7166 14.6392 32.4642L14.6732 32.4443L26.6572 25.5291L21.0478 19.4232Z" fill="#EA4335"/>
<path d="M31.8189 17.499L31.8087 17.492L26.6349 14.4927L20.806 19.6795L26.6552 25.5279L31.8017 22.5584C32.704 22.0713 33.3165 21.1201 33.3165 20.0232C33.3165 18.9342 32.7122 17.9877 31.8189 17.499Z" fill="#FBBC04"/>
<path d="M10.4009 9.27637C10.3369 9.51237 10.3033 9.75957 10.3033 10.0162V29.9838C10.3033 30.2401 10.3365 30.4881 10.4013 30.7233L21.4142 19.7123L10.4009 9.27637Z" fill="#4285F4"/>
<path d="M21.1263 19.9999L26.6369 14.4909L14.6665 7.55065C14.2314 7.29005 13.7236 7.13965 13.1802 7.13965C11.8501 7.13965 10.7279 8.04475 10.4013 9.27325L10.4009 9.27635L21.1263 19.9999Z" fill="#34A853"/>
</g>
<defs>
<clipPath id="clip0_9_219">
<rect width="135" height="40" fill="white" transform="translate(0.333344)"/>
</clipPath>
</defs>
</svg>
